<svg id="Capa_1" data-name="Capa 1" xmlns="http://www.w3.org/2000/svg" viewBox="0 0 60 50"><defs><style>.cls-1{fill:#2b2d42;}</style></defs><title>for_sale</title><path class="cls-1" d="M579.45,401.3h-1V374.54a8.42,8.42,0,0,0,3.76-7,0.92,0.92,0,0,0-.12-0.45l-7-12.52a2.75,2.75,0,0,0-2.39-1.43h-41a2.75,2.75,0,0,0-2.39,1.43l-7,12.52a0.92,0.92,0,0,0-.12.45,8.42,8.42,0,0,0,3.76,7V401.3h-1a0.9,0.9,0,0,0,0,1.8h54.48A0.9,0.9,0,0,0,579.45,401.3ZM524,368.4h2.82a0.9,0.9,0,0,0,0-1.8H524.6l6.22-11.17a1,1,0,0,1,.87-0.52h41a1,1,0,0,1,.87.52l6.22,11.17h-2.24a0.9,0.9,0,0,0,0,1.8h2.82a6.38,6.38,0,0,1-12.68,0h6.11a0.9,0.9,0,0,0,0-1.8H530.6a0.9,0.9,0,0,0,0,1.8h6.1A6.38,6.38,0,0,1,524,368.4Zm41.8,0a6.38,6.38,0,0,1-12.68,0h12.68Zm-14.56,0a6.38,6.38,0,0,1-12.68,0h12.68ZM572,401.3h-9.51v-3H572v3Zm0-4.82h-9.51V380H572v16.51Zm4.7,4.82h-2.94V379.07a0.89,0.89,0,0,0-.88-0.9H561.6a0.89,0.89,0,0,0-.88.9V401.3h-33V375.42a7.93,7.93,0,0,0,2.64.45,8.15,8.15,0,0,0,7.28-4.59,8.07,8.07,0,0,0,14.56,0,8.07,8.07,0,0,0,14.56,0,8.15,8.15,0,0,0,7.28,4.59,7.94,7.94,0,0,0,2.64-.45V401.3Z" transform="translate(-522.2 -353.1)"/><path class="cls-1" d="M556.9,378.17H531.54a0.89,0.89,0,0,0-.88.9v18.31a0.89,0.89,0,0,0,.88.9H556.9a0.89,0.89,0,0,0,.88-0.9V379.07A0.89,0.89,0,0,0,556.9,378.17ZM556,396.48H532.42V380H556v16.51Z" transform="translate(-522.2 -353.1)"/></svg>