<svg id="Layer_1" data-name="Layer 1" xmlns="http://www.w3.org/2000/svg" viewBox="0 0 50 50"><defs><style>.cls-1{fill:#2b2d42;}</style></defs><title>gigs</title><g id="Consult-Talk"><rect class="cls-1" x="11.67" y="19.33" width="1.67" height="1.66"/><rect class="cls-1" x="20" y="19.33" width="1.67" height="1.66"/><path class="cls-1" d="M783.91,382.73l-3.26-.46a11.57,11.57,0,0,0-.55-1.33l2-2.61a0.83,0.83,0,0,0-.08-1.08l-3.54-3.52a0.83,0.83,0,0,0-.51-0.23v-8a6.61,6.61,0,0,0-1.31-11.16,0.84,0.84,0,0,0-1.11.4,0.83,0.83,0,0,0-.08.35v4.64l-1.67.55-1.67-.55v-4.64a0.83,0.83,0,0,0-1.19-.75,6.6,6.6,0,0,0-1.31,11.16v5.6h-2.5a0.83,0.83,0,0,0-.83.71l-0.54,3.75,1.65,0.23,0.44-3h3.55l0.44,3a0.83,0.83,0,0,0,.59.68,10,10,0,0,1,2,.82,0.84,0.84,0,0,0,.9-0.06l2.47-1.84,2.51,2.5-1.85,2.45a0.83,0.83,0,0,0-.06.9,9.87,9.87,0,0,1,.82,2,0.83,0.83,0,0,0,.68.59l3.06,0.43v3.54l-3.06.43a0.83,0.83,0,0,0-.68.59,9.87,9.87,0,0,1-.82,2,0.83,0.83,0,0,0,.06.9l1.85,2.45-2.51,2.5-2.47-1.85a0.84,0.84,0,0,0-.9-0.06,10,10,0,0,1-2,.82,0.83,0.83,0,0,0-.59.68l-0.43,3H768V395.8a9.16,9.16,0,0,0-.38-2.59,7.55,7.55,0,1,0-5.15-9.37,7.51,7.51,0,0,0-.18,3.52l-0.06,0-6.74-2.68v-1.27a9.23,9.23,0,0,0,2.9-2.31h2.1a2.49,2.49,0,0,0,2.5-2.49v-1.81a2.49,2.49,0,0,0,1.67-2.33v-2.49a2.49,2.49,0,0,0-1.67-2.33v-1a11.67,11.67,0,0,0-23.33,0v1a2.49,2.49,0,0,0-1.67,2.33v2.49a2.49,2.49,0,0,0,2.5,2.49h1.82a9.14,9.14,0,0,0,4.84,6.47v1.27l-6.74,2.68a9.08,9.08,0,0,0-5.76,8.47v7.65a0.83,0.83,0,0,0,.83.83h31.67a0.83,0.83,0,0,0,.83-0.83V401h4.17a0.83,0.83,0,0,0,.83-0.71l0.46-3.24a11.7,11.7,0,0,0,1.33-.54l2.63,2a0.84,0.84,0,0,0,1.09-.08l3.54-3.52a0.83,0.83,0,0,0,.08-1.08l-2-2.61a11.57,11.57,0,0,0,.55-1.33l3.26-.46a0.83,0.83,0,0,0,.71-0.82v-5A0.83,0.83,0,0,0,783.91,382.73Zm-9.17-7.12-0.12,0V365.32H773v6.51a0.83,0.83,0,0,0-.83-0.71H771.3v-6a0.83,0.83,0,0,0-.36-0.68,5,5,0,0,1-.48-7.79v3.71a0.83,0.83,0,0,0,.57.79l2.5,0.83a0.84,0.84,0,0,0,.53,0l2.5-.83a0.83,0.83,0,0,0,.57-0.79v-3.71a5,5,0,0,1-.48,7.79,0.83,0.83,0,0,0-.36.68v9.36ZM763.8,386a5.86,5.86,0,1,1,2.78,4.92,9.07,9.07,0,0,0-2.18-2.38A5.64,5.64,0,0,1,763.8,386Zm-3.33-6.63h-1a9,9,0,0,0,.85-2.5h1v1.66A0.83,0.83,0,0,1,760.46,379.41Zm-1.67-9.12a2.52,2.52,0,0,1-2-1l-1.5-2a0.83,0.83,0,0,0-.56-0.32,0.85,0.85,0,0,0-.63.17l-2.8,2.22a4.2,4.2,0,0,1-2.6.91H743.8v-0.83a7.5,7.5,0,0,1,15,0v0.83Zm4.17,4.14a0.83,0.83,0,0,1-.83.83h-1.67v-4.14h1.67a0.83,0.83,0,0,1,.83.83v2.49ZM751.3,358.69a10,10,0,0,1,10,9.95v0.83h-0.83a9.17,9.17,0,0,0-18.33,0H741.3v-0.83A10,10,0,0,1,751.3,358.69Zm-10.83,16.58a0.83,0.83,0,0,1-.83-0.83v-2.49a0.83,0.83,0,0,1,.83-0.83h1.67v4.14h-1.67Zm3.33,0v-3.32h4.92a5.87,5.87,0,0,0,3.64-1.27l2.13-1.69,1,1.31a4.2,4.2,0,0,0,3.33,1.66v3.32a7.39,7.39,0,0,1-1.27,4.14H751.3v1.66H756A7.52,7.52,0,0,1,745.46,380,7.43,7.43,0,0,1,743.8,375.27Zm7.5,9.12a9.18,9.18,0,0,0,2.5-.35v1.18a2.5,2.5,0,0,1-5,0V384A9.18,9.18,0,0,0,751.3,384.38Zm15,18.24h-5V393.5h-1.67v9.12H743V393.5H741.3v9.12h-5V395.8a7.43,7.43,0,0,1,4.71-6.93l6.3-2.51a4.15,4.15,0,0,0,8,0l6.3,2.51a7.43,7.43,0,0,1,4.71,6.93v6.82Z" transform="translate(-734.63 -354.28)"/><rect class="cls-1" x="34.17" y="20.16" width="1.67" height="1.66"/><rect class="cls-1" x="34.17" y="41.71" width="1.67" height="1.66"/><polygon class="cls-1" points="41.48 39.38 42.66 38.21 43.84 39.38 42.66 40.56 41.48 39.38"/><rect class="cls-1" x="45" y="30.94" width="1.67" height="1.66"/><polygon class="cls-1" points="41.48 24.14 42.66 22.97 43.84 24.14 42.66 25.32 41.48 24.14"/></g></svg>