<svg id="Layer_5" data-name="Layer 5" xmlns="http://www.w3.org/2000/svg" viewBox="0 0 50 50"><defs><style>.cls-1{fill:#2b2d42;}</style></defs><title>craigslist_mockup</title><path class="cls-1" d="M138.24,388.59h1.61V395h-1.61v-6.45Z" transform="translate(-105.99 -348.27)"/><path class="cls-1" d="M141.47,388.59h1.61V395h-1.61v-6.45Z" transform="translate(-105.99 -348.27)"/><path class="cls-1" d="M149.53,376.49V359.56h-1.61v-8.21l-1.61.27v-1.74H144.7v2l-1.61.27v-3.89h-1.61v4.16l-1.61.27v-2.81h-1.61V353l-1.61.27v6.33H135v8.06h-6.45V356.34h-3.23V351.5h-1.61v-3.23h-8.06v3.23h-1.61v4.84h-3.23V371.4a5.65,5.65,0,0,0-3.16,4.29H106v22.58h50v-22.7ZM138.24,354.6l8.06-1.34v6.31h-8.06v-5Zm-1.61,6.57h11.29v15.55l-4.84.69v4.19l-2.42-3.23-2.42,3.23v-14h-1.61v-6.45Zm0,9.68H125.34v-1.61h11.29v1.61Zm0,16.13h8.06v9.68h-8.06V387Zm0.81-1.61,3.23-4.3,3.23,4.3h-6.45Zm-20.16-35.48h4.84v1.61h-4.84v-1.61Zm-1.61,3.23h8.06v3.23h-8.06v-3.23Zm-3.23,4.84H127v9.68h-3.23v3.78a5.61,5.61,0,0,0-2.42-.55h-8.06a5.67,5.67,0,0,0-.81.06v-13Zm0.81,14.52h8.06a4,4,0,0,1,4,3.23h-16A4,4,0,0,1,113.24,372.46ZM127,377.3v1.61H107.6V377.3H127Zm-3.23,14.52H120.5v-3.23h3.23v3.23Zm-4.84,0h-3.23v-3.23h3.23v3.23Zm0,1.61v3.23h-3.23v-3.23h3.23Zm1.61,0h3.23v3.23H120.5v-3.23Zm3.23-6.45H120.5v-3.23h3.23V387Zm-4.84,0h-3.23v-3.23h3.23V387Zm-4.84,0h-3.23v-3.23h3.23V387Zm-3.23,1.61h3.23v3.23h-3.23v-3.23Zm0,4.84h3.23v3.23h-3.23v-3.23Zm14.52,3.23V382.14H109.21v14.52H107.6V380.53H127v16.13h-1.61Zm1.55-21a5.62,5.62,0,0,0-1.55-3.14v-0.09h11.29v11.29L135,385.91v10.75h-6.45v-21h-1.68Zm27.48,21h-8.06V385.91l-1.61-2.15v-4.95l9.68-1.38v19.23Z" transform="translate(-105.99 -348.27)"/><path class="cls-1" d="M130.18,374.08h1.61v1.61h-1.61v-1.61Z" transform="translate(-105.99 -348.27)"/><path class="cls-1" d="M130.18,393.43h1.61V395h-1.61v-1.61Z" transform="translate(-105.99 -348.27)"/><path class="cls-1" d="M130.18,377.3h1.61v1.61h-1.61V377.3Z" transform="translate(-105.99 -348.27)"/><path class="cls-1" d="M130.18,390.21h1.61v1.61h-1.61v-1.61Z" transform="translate(-105.99 -348.27)"/><path class="cls-1" d="M130.18,383.75h1.61v1.61h-1.61v-1.61Z" transform="translate(-105.99 -348.27)"/><path class="cls-1" d="M130.18,380.53h1.61v1.61h-1.61v-1.61Z" transform="translate(-105.99 -348.27)"/><path class="cls-1" d="M130.18,387h1.61v1.61h-1.61V387Z" transform="translate(-105.99 -348.27)"/><path class="cls-1" d="M133.4,380.53H135v1.61H133.4v-1.61Z" transform="translate(-105.99 -348.27)"/><path class="cls-1" d="M133.4,377.3H135v1.61H133.4V377.3Z" transform="translate(-105.99 -348.27)"/><path class="cls-1" d="M133.4,374.08H135v1.61H133.4v-1.61Z" transform="translate(-105.99 -348.27)"/><path class="cls-1" d="M151.15,393.43h1.61V395h-1.61v-1.61Z" transform="translate(-105.99 -348.27)"/><path class="cls-1" d="M151.15,387h1.61v1.61h-1.61V387Z" transform="translate(-105.99 -348.27)"/><path class="cls-1" d="M151.15,390.21h1.61v1.61h-1.61v-1.61Z" transform="translate(-105.99 -348.27)"/><path class="cls-1" d="M151.15,383.75h1.61v1.61h-1.61v-1.61Z" transform="translate(-105.99 -348.27)"/><path class="cls-1" d="M151.15,380.53h1.61v1.61h-1.61v-1.61Z" transform="translate(-105.99 -348.27)"/><path class="cls-1" d="M147.92,390.21h1.61v1.61h-1.61v-1.61Z" transform="translate(-105.99 -348.27)"/><path class="cls-1" d="M147.92,380.53h1.61v1.61h-1.61v-1.61Z" transform="translate(-105.99 -348.27)"/><path class="cls-1" d="M147.92,387h1.61v1.61h-1.61V387Z" transform="translate(-105.99 -348.27)"/><path class="cls-1" d="M147.92,393.43h1.61V395h-1.61v-1.61Z" transform="translate(-105.99 -348.27)"/><path class="cls-1" d="M147.92,383.75h1.61v1.61h-1.61v-1.61Z" transform="translate(-105.99 -348.27)"/><path class="cls-1" d="M123.73,359.56h1.61v1.61h-1.61v-1.61Z" transform="translate(-105.99 -348.27)"/><path class="cls-1" d="M120.5,359.56h1.61v1.61H120.5v-1.61Z" transform="translate(-105.99 -348.27)"/><path class="cls-1" d="M114.05,359.56h1.61v1.61h-1.61v-1.61Z" transform="translate(-105.99 -348.27)"/><path class="cls-1" d="M117.28,359.56h1.61v1.61h-1.61v-1.61Z" transform="translate(-105.99 -348.27)"/><path class="cls-1" d="M117.28,362.79h1.61v1.61h-1.61v-1.61Z" transform="translate(-105.99 -348.27)"/><path class="cls-1" d="M123.73,362.79h1.61v1.61h-1.61v-1.61Z" transform="translate(-105.99 -348.27)"/><path class="cls-1" d="M114.05,362.79h1.61v1.61h-1.61v-1.61Z" transform="translate(-105.99 -348.27)"/><path class="cls-1" d="M120.5,362.79h1.61v1.61H120.5v-1.61Z" transform="translate(-105.99 -348.27)"/><path class="cls-1" d="M114.05,366h1.61v1.61h-1.61V366Z" transform="translate(-105.99 -348.27)"/><path class="cls-1" d="M117.28,366h1.61v1.61h-1.61V366Z" transform="translate(-105.99 -348.27)"/><path class="cls-1" d="M120.5,366h1.61v1.61H120.5V366Z" transform="translate(-105.99 -348.27)"/><path class="cls-1" d="M144.7,362.79h1.61v1.61H144.7v-1.61Z" transform="translate(-105.99 -348.27)"/><path class="cls-1" d="M141.47,362.79h1.61v1.61h-1.61v-1.61Z" transform="translate(-105.99 -348.27)"/><path class="cls-1" d="M138.24,362.79h1.61v1.61h-1.61v-1.61Z" transform="translate(-105.99 -348.27)"/><path class="cls-1" d="M144.7,366h1.61v1.61H144.7V366Z" transform="translate(-105.99 -348.27)"/><path class="cls-1" d="M138.24,366h1.61v1.61h-1.61V366Z" transform="translate(-105.99 -348.27)"/><path class="cls-1" d="M141.47,366h1.61v1.61h-1.61V366Z" transform="translate(-105.99 -348.27)"/><path class="cls-1" d="M141.47,372.46h1.61v1.61h-1.61v-1.61Z" transform="translate(-105.99 -348.27)"/><path class="cls-1" d="M141.47,369.24h1.61v1.61h-1.61v-1.61Z" transform="translate(-105.99 -348.27)"/><path class="cls-1" d="M144.7,372.46h1.61v1.61H144.7v-1.61Z" transform="translate(-105.99 -348.27)"/><path class="cls-1" d="M144.7,369.24h1.61v1.61H144.7v-1.61Z" transform="translate(-105.99 -348.27)"/></svg>