<svg id="Layer_1" data-name="Layer 1" xmlns="http://www.w3.org/2000/svg" viewBox="0 0 50 50"><defs><style>.cls-1{fill:#2b2d42;}</style></defs><title>jobs</title><path class="cls-1" d="M367,356.55H356.17v-3.7a4.42,4.42,0,0,0-4.17-4.63H337a4.42,4.42,0,0,0-4.17,4.63v3.7H322a2.65,2.65,0,0,0-2.5,2.78v20.61a2.79,2.79,0,0,0,1.67,2.61v12.89a2.65,2.65,0,0,0,2.5,2.78h41.67a2.65,2.65,0,0,0,2.5-2.78V382.56a2.79,2.79,0,0,0,1.67-2.62V359.33A2.65,2.65,0,0,0,367,356.55Zm-32.5-3.7a2.65,2.65,0,0,1,2.5-2.78h15a2.65,2.65,0,0,1,2.5,2.78v3.7h-1.67v-3.7a0.88,0.88,0,0,0-.83-0.93H337a0.88,0.88,0,0,0-.83.93v3.7h-1.67v-3.7Zm16.67,3.7H337.84v-2.78h13.33v2.78Zm15,38.89a0.88,0.88,0,0,1-.83.93H323.67a0.88,0.88,0,0,1-.83-0.93V382.87l18.33,2.81V388a2.65,2.65,0,0,0,2.5,2.78h1.67a2.65,2.65,0,0,0,2.5-2.78v-2.35l18.33-2.81v12.57Zm-20-7.41a0.88,0.88,0,0,1-.83.93h-1.67a0.88,0.88,0,0,1-.83-0.93v-5.56a0.88,0.88,0,0,1,.83-0.93h1.67a0.88,0.88,0,0,1,.83.93V388Zm21.67-8.09a0.9,0.9,0,0,1-.72.92l-0.23,0-19.05,2.92v-1.34a2.65,2.65,0,0,0-2.5-2.78h-1.67a2.65,2.65,0,0,0-2.5,2.78v1.34l-19.28-3a0.9,0.9,0,0,1-.72-0.92V359.33a0.88,0.88,0,0,1,.83-0.93h45a0.88,0.88,0,0,1,.83.93v20.61Z" transform="translate(-319.51 -348.22)"/></svg>