<svg id="Capa_1" data-name="Capa 1" xmlns="http://www.w3.org/2000/svg" viewBox="0 0 36 50"><defs><style>.cls-1{fill:#2b2d42;}</style></defs><title>resumes</title><path class="cls-1" d="M860.27,369.74H849.48a0.74,0.74,0,0,0,0,1.47h10.79A0.74,0.74,0,0,0,860.27,369.74Z" transform="translate(-835.59 -353.2)"/><path class="cls-1" d="M862.73,372.19H849.48a0.74,0.74,0,0,0,0,1.47h13.26A0.74,0.74,0,0,0,862.73,372.19Z" transform="translate(-835.59 -353.2)"/><path class="cls-1" d="M861.91,401.74h-25v-36.2a0.66,0.66,0,1,0-1.32,0V402a1.17,1.17,0,0,0,1.1,1.22h25.22A0.74,0.74,0,0,0,861.91,401.74Z" transform="translate(-835.59 -353.2)"/><path class="cls-1" d="M871.4,359.84l-5.61-6.41a0.63,0.63,0,0,0-.47-0.22H836.69a1.17,1.17,0,0,0-1.1,1.22v5.72a0.66,0.66,0,1,0,1.32,0v-5.48H865l5.23,6v41.09h-3.74a0.74,0.74,0,0,0,0,1.47h4a1.17,1.17,0,0,0,1.1-1.22V360.35A0.78,0.78,0,0,0,871.4,359.84Z" transform="translate(-835.59 -353.2)"/><path class="cls-1" d="M871.4,359.84l-5.61-6.41a0.61,0.61,0,0,0-.72-0.17,0.74,0.74,0,0,0-.41.68v6.41a0.7,0.7,0,0,0,.66.73h5.61a0.66,0.66,0,0,0,.61-0.45A0.8,0.8,0,0,0,871.4,359.84Zm-5.42-.22v-3.87l3.39,3.87H866Z" transform="translate(-835.59 -353.2)"/><path class="cls-1" d="M856.65,357.1H840.74a1.17,1.17,0,0,0-1.1,1.22v4.06a1.17,1.17,0,0,0,1.1,1.22h15.91a1.17,1.17,0,0,0,1.1-1.22v-4.06A1.17,1.17,0,0,0,856.65,357.1Zm-0.22,5H841v-3.57h15.47v3.57Z" transform="translate(-835.59 -353.2)"/><path class="cls-1" d="M846.23,367.44a0.62,0.62,0,0,0-.92.14l-2.92,4.27-0.88-.85a0.61,0.61,0,0,0-.93.07,0.79,0.79,0,0,0,.06,1l1.41,1.37a0.62,0.62,0,0,0,.43.18h0.07a0.65,0.65,0,0,0,.46-0.29l3.34-4.89A0.79,0.79,0,0,0,846.23,367.44Z" transform="translate(-835.59 -353.2)"/><path class="cls-1" d="M866.1,367.29H849.48a0.74,0.74,0,0,0,0,1.47H866.1A0.74,0.74,0,0,0,866.1,367.29Z" transform="translate(-835.59 -353.2)"/><path class="cls-1" d="M846.23,377.42a0.62,0.62,0,0,0-.92.14l-2.92,4.27-0.88-.85a0.62,0.62,0,0,0-.93.07,0.79,0.79,0,0,0,.06,1l1.41,1.37a0.62,0.62,0,0,0,.43.18h0.07a0.65,0.65,0,0,0,.46-0.29l3.34-4.89A0.79,0.79,0,0,0,846.23,377.42Z" transform="translate(-835.59 -353.2)"/><path class="cls-1" d="M860.27,379.72H849.48a0.74,0.74,0,0,0,0,1.47h10.79A0.74,0.74,0,0,0,860.27,379.72Z" transform="translate(-835.59 -353.2)"/><path class="cls-1" d="M862.73,382.17H849.48a0.74,0.74,0,0,0,0,1.47h13.26A0.74,0.74,0,0,0,862.73,382.17Z" transform="translate(-835.59 -353.2)"/><path class="cls-1" d="M866.1,387.26H849.48a0.74,0.74,0,0,0,0,1.47H866.1A0.74,0.74,0,0,0,866.1,387.26Z" transform="translate(-835.59 -353.2)"/><path class="cls-1" d="M860.27,389.7H849.48a0.74,0.74,0,0,0,0,1.47h10.79A0.74,0.74,0,0,0,860.27,389.7Z" transform="translate(-835.59 -353.2)"/><path class="cls-1" d="M862.73,392.15H849.48a0.74,0.74,0,0,0,0,1.47h13.26A0.74,0.74,0,0,0,862.73,392.15Z" transform="translate(-835.59 -353.2)"/><path class="cls-1" d="M845,387.26h-3.52a1.17,1.17,0,0,0-1.1,1.22v3.91a1.17,1.17,0,0,0,1.1,1.22H845a1.17,1.17,0,0,0,1.1-1.22v-3.91A1.17,1.17,0,0,0,845,387.26Zm-0.22,4.89h-3.08v-3.42h3.08v3.42Z" transform="translate(-835.59 -353.2)"/></svg>