<svg id="Capa_1" data-name="Capa 1" xmlns="http://www.w3.org/2000/svg" viewBox="0 0 50 50"><defs><style>.cls-1{fill:#2b2d42;}</style></defs><title>services</title><path class="cls-1" d="M468.92,352.54H424a2.65,2.65,0,0,0-2.55,2.73v34A2.65,2.65,0,0,0,424,392h13.19v4.09h-4.9a3.14,3.14,0,0,0-3,3.24v2.2a1,1,0,0,0,1,1h32.43a1,1,0,0,0,1-1v-2.2a3.14,3.14,0,0,0-3-3.24h-4.9V392h13.18a2.65,2.65,0,0,0,2.55-2.73v-34a2.65,2.65,0,0,0-2.55-2.73h0Zm-7.21,46.76v1.15H431.24v-1.15a1.11,1.11,0,0,1,1.07-1.15h28.33a1.11,1.11,0,0,1,1.07,1.15h0Zm-7.93-3.24H439.16V392h14.63v4.09Zm15.14-6.18H424a0.63,0.63,0,0,1-.6-0.64v-2.1h18.66a1,1,0,0,0,0-2.09H423.43V355.27a0.63,0.63,0,0,1,.6-0.64h44.9a0.63,0.63,0,0,1,.6.64V385H450.86a1,1,0,0,0,0,2.09h18.66v2.1a0.63,0.63,0,0,1-.6.64h0Z" transform="translate(-421.48 -352.54)"/><path class="cls-1" d="M465.23,373.82H452a1,1,0,0,0-1,1v6.51a1,1,0,0,0,1,1h13.23a1,1,0,0,0,1-1v-6.51a1,1,0,0,0-1-1h0Zm-1,6.51H453v-4.42h11.28v4.42h0Z" transform="translate(-421.48 -352.54)"/><path class="cls-1" d="M447.13,366.6H447a11.33,11.33,0,0,0-.74-1.9l0.1-.1a2.05,2.05,0,0,0,0-2.77l-1.68-1.8a1.75,1.75,0,0,0-1.29-.58h0a1.75,1.75,0,0,0-1.29.57l-0.1.11a9.86,9.86,0,0,0-1.77-.79V359.2a1.9,1.9,0,0,0-1.83-2H436a1.9,1.9,0,0,0-1.83,2v0.15a9.86,9.86,0,0,0-1.77.79l-0.1-.11a1.76,1.76,0,0,0-1.29-.57h0a1.75,1.75,0,0,0-1.29.57l-1.69,1.8a2.06,2.06,0,0,0,0,2.77l0.1,0.11a11.25,11.25,0,0,0-.74,1.9h-0.14a1.9,1.9,0,0,0-1.83,2v2.55a1.9,1.9,0,0,0,1.83,2h0.14a11.26,11.26,0,0,0,.73,1.9l-0.1.11a2.07,2.07,0,0,0,0,2.77l1.69,1.8a1.75,1.75,0,0,0,2.58,0l0.1-.11a9.8,9.8,0,0,0,1.77.79v0.15a1.9,1.9,0,0,0,1.83,2h2.38a1.9,1.9,0,0,0,1.83-2v-0.15a9.79,9.79,0,0,0,1.77-.79l0.1,0.11a1.75,1.75,0,0,0,2.58,0l1.68-1.8a2.06,2.06,0,0,0,0-2.77l-0.1-.1a11.32,11.32,0,0,0,.74-1.9h0.14a1.9,1.9,0,0,0,1.83-2v-2.55a1.9,1.9,0,0,0-1.83-2h0ZM447,371h-0.76a1,1,0,0,0-1,.82,9.17,9.17,0,0,1-1.08,2.78,1.1,1.1,0,0,0,.13,1.3l0.54,0.58-1.5,1.61-0.54-.58a0.93,0.93,0,0,0-1.21-.14,7.93,7.93,0,0,1-2.6,1.15,1,1,0,0,0-.76,1v0.82h-2.13v-0.82a1,1,0,0,0-.76-1,7.93,7.93,0,0,1-2.6-1.15,0.93,0.93,0,0,0-1.21.14l-0.54.58-1.51-1.61,0.54-.58a1.1,1.1,0,0,0,.14-1.3,9.11,9.11,0,0,1-1.08-2.78,1,1,0,0,0-1-.82h-0.76v-2.28h0.76a1,1,0,0,0,1-.82,9.11,9.11,0,0,1,1.08-2.78,1.1,1.1,0,0,0-.13-1.3l-0.54-.58L431,361.6l0.54,0.58a0.93,0.93,0,0,0,1.21.14,8,8,0,0,1,2.6-1.16,1,1,0,0,0,.76-1v-0.82h2.13v0.82a1,1,0,0,0,.76,1,8,8,0,0,1,2.6,1.16,0.93,0.93,0,0,0,1.21-.14l0.54-.58,1.5,1.61-0.54.58a1.1,1.1,0,0,0-.13,1.3,9.17,9.17,0,0,1,1.08,2.78,1,1,0,0,0,1,.82H447V371h0Z" transform="translate(-421.48 -352.54)"/><path class="cls-1" d="M442.88,366.73a1.06,1.06,0,0,0-.46-0.77l-4.72-3a0.92,0.92,0,0,0-1,0L432,366a1.08,1.08,0,0,0-.47.9v6a1.06,1.06,0,0,0,.47.9l4.72,3a0.93,0.93,0,0,0,1,0l4.72-3a1.06,1.06,0,0,0,.47-0.9v-6a1.15,1.15,0,0,0,0-.12h0ZM437.2,365l2.83,1.82-2.83,1.82-2.83-1.82Zm-3.74,3.68,2.77,1.78V374l-2.77-1.78v-3.51Zm7.48,3.51L438.17,374v-3.51l2.76-1.78v3.51Z" transform="translate(-421.48 -352.54)"/><path class="cls-1" d="M456.38,361.51h8.85a1,1,0,0,0,0-2.09h-8.85A1,1,0,0,0,456.38,361.51Z" transform="translate(-421.48 -352.54)"/><path class="cls-1" d="M452,361.51h0a1,1,0,1,0-1-1,1,1,0,0,0,1,1h0Z" transform="translate(-421.48 -352.54)"/><path class="cls-1" d="M456.38,366h8.85a1,1,0,0,0,0-2.09h-8.85A1,1,0,0,0,456.38,366Z" transform="translate(-421.48 -352.54)"/><path class="cls-1" d="M452,366h0a1,1,0,1,0-1-1,1,1,0,0,0,1,1Z" transform="translate(-421.48 -352.54)"/><path class="cls-1" d="M456.37,370.57h8.85a1,1,0,0,0,0-2.09h-8.85A1,1,0,0,0,456.37,370.57Z" transform="translate(-421.48 -352.54)"/><path class="cls-1" d="M452,370.57h0a1,1,0,1,0-1-1,1,1,0,0,0,1,1h0Z" transform="translate(-421.48 -352.54)"/><path class="cls-1" d="M446.47,385a1,1,0,0,0,0,2.09h0a1,1,0,0,0,0-2.09h0Z" transform="translate(-421.48 -352.54)"/></svg>