<svg id="Capa_1" data-name="Capa 1" xmlns="http://www.w3.org/2000/svg" viewBox="0 0 65 50"><defs><style>.cls-1{fill:#2b2d42;}</style></defs><title>community</title><path class="cls-1" d="M270.92,383.27a1,1,0,0,0-.9-0.41l-5.69.61a0.94,0.94,0,1,0,.21,1.87l2.72-.29c-2.2,1-6.08,1.31-11,.91-1.4-.12-2.88-0.29-4.41-0.52a38.12,38.12,0,0,0,1.84-11.1H262a22.65,22.65,0,0,1-1.82,8.05,0.93,0.93,0,0,0,.51,1.23,1,1,0,0,0,1.25-.5,24.47,24.47,0,0,0,1.85-7.09,19.69,19.69,0,0,1,4.52,4.36,1,1,0,0,0,1.32.26,0.93,0.93,0,0,0,.26-1.3,23.18,23.18,0,0,0-6-5.54c0-.14,0-0.27,0-0.41a25.22,25.22,0,0,0-25.37-25,25.66,25.66,0,0,0-16,5.57,25.24,25.24,0,0,0-4.62,4.83,23.86,23.86,0,0,0-8,.87l0.73-1.24a0.93,0.93,0,0,0-.34-1.28,1,1,0,0,0-1.3.34l-2.89,4.87a0.93,0.93,0,0,0,0,1,1,1,0,0,0,.8.44h0.08l5.71-.49a0.94,0.94,0,1,0-.16-1.87l-2.54.22a19,19,0,0,1,6.61-1,24.66,24.66,0,0,0-2.93,7.26,0.94,0.94,0,0,0,.72,1.12,1,1,0,0,0,1.14-.71,22.92,22.92,0,0,1,3.83-8.4q2.83,0.75,5.78,1.26a38,38,0,0,0-1.9,11.27h-7.58c-3.4-2.18-5.87-4.33-7.07-6.19a1,1,0,0,0-1.32-.28,0.93,0.93,0,0,0-.29,1.3,22.72,22.72,0,0,0,6.08,5.71c0,0.13,0,.27,0,0.4a25.22,25.22,0,0,0,25.37,25A25.52,25.52,0,0,0,259.15,388h1a22.73,22.73,0,0,0,7.05-.91l-0.67,1.19a0.93,0.93,0,0,0,.37,1.28,1,1,0,0,0,1.29-.36l2.78-4.93A0.93,0.93,0,0,0,270.92,383.27Zm-50.16-25a23.33,23.33,0,0,1,10.48-6.89,19,19,0,0,0-3.59,4.48,26.69,26.69,0,0,0-1.72,3.49Q223.3,358.94,220.76,358.31Zm2.6,16q0,1.18.12,2.33c-1.59-.76-3.11-1.53-4.55-2.33h4.43Zm-3.88,12.53a22.77,22.77,0,0,1-4.38-12.53h0.12q1,0.62,2.09,1.25c2,1.13,4.12,2.22,6.4,3.26a36,36,0,0,0,1.55,6.75Q222.32,386.1,219.49,386.85Zm1.28,1.61q2.53-.63,5.16-1.08a26.71,26.71,0,0,0,1.72,3.49,19,19,0,0,0,3.59,4.49A23.56,23.56,0,0,1,220.77,388.46Zm5-8.71c3,1.28,6.15,2.48,9.44,3.55l2.38,0.75v0.43a77.59,77.59,0,0,0-10.43.8A33.21,33.21,0,0,1,225.77,379.75Zm11.83,16.7c-3.1-.39-6-2.67-8.3-6.52a24.59,24.59,0,0,1-1.44-2.84,75.84,75.84,0,0,1,9.73-.72v10.09h0Zm0-14.36-1.78-.57a108.31,108.31,0,0,1-10.34-4c-0.11-1.06-.18-2.15-0.21-3.25H237.6v7.77Zm0-9.64H225.27a36,36,0,0,1,1.9-11,77.6,77.6,0,0,0,10.43.8v10.16h0Zm0-12a75.86,75.86,0,0,1-9.73-.72,24.59,24.59,0,0,1,1.44-2.84c2.28-3.85,5.2-6.13,8.3-6.52v10.09Zm20-.53A22.78,22.78,0,0,1,262,372.44h-8.26a38,38,0,0,0-1.91-11.29Q254.77,360.63,257.59,359.88Zm-1.29-1.6q-2.52.64-5.14,1.09a26.65,26.65,0,0,0-1.71-3.47,19,19,0,0,0-3.59-4.49A23.56,23.56,0,0,1,256.3,358.28Zm-16.8-8c3.1,0.39,6,2.67,8.3,6.52a24.58,24.58,0,0,1,1.43,2.82,75.73,75.73,0,0,1-9.72.74V350.32Zm0,12h0a77.47,77.47,0,0,0,10.42-.82,35.93,35.93,0,0,1,1.91,11H239.5V362.28Zm0,12h12.33A36.05,36.05,0,0,1,250,385.11a101.17,101.17,0,0,1-10.49-2.46v-8.33h0Zm0,22.13V386.36a75.71,75.71,0,0,1,9.72.74,24.59,24.59,0,0,1-1.43,2.82C245.52,393.78,242.6,396.06,239.5,396.45Zm6.36-1.1a19,19,0,0,0,3.58-4.48,26.7,26.7,0,0,0,1.71-3.47q2.63,0.45,5.15,1.09A23.54,23.54,0,0,1,245.86,395.35Z" transform="translate(-206.08 -348.38)"/></svg>