<svg id="Capa_1" data-name="Capa 1" xmlns="http://www.w3.org/2000/svg" viewBox="0 0 50 50"><defs><style>.cls-1{fill:#2b2d42;}</style></defs><title>discussion_forums</title><path class="cls-1" d="M653.84,391.86l-0.22,0a6.24,6.24,0,0,0,1.73-4.31v-5.14a1,1,0,0,0,0-.14c0-.09,0-0.19,0-0.28v-3.25a1,1,0,0,0-1-1h-6.55a5,5,0,0,0-5,5v4.78a6.24,6.24,0,0,0,1.73,4.31l-0.22,0a9.08,9.08,0,0,0-8.24,9v4.17a1,1,0,0,0,1,1h24a1,1,0,0,0,1-1v-4.17A9.08,9.08,0,0,0,653.84,391.86ZM644.78,384v-1.24a3.05,3.05,0,0,1,3-3h5.57V382a2.08,2.08,0,0,1-2.08,2.08h-6.55V384Zm0,2h6.55a4,4,0,0,0,2.08-.58v2.1a4.31,4.31,0,1,1-8.62,0V386Zm6.44,7.79-2.13,2.13L647,393.78h4.25Zm8.92,10.31H638v-2h4.05a1,1,0,0,0,0-2h-4a7.13,7.13,0,0,1,6.18-6.34L648.4,398a1,1,0,0,0,1.38,0l4.14-4.14a7.12,7.12,0,0,1,6.21,7.06v3.2Z" transform="translate(-636.1 -356.04)"/><path class="cls-1" d="M677.85,370.17l-0.22,0a6.24,6.24,0,0,0,1.73-4.31v-5.14a1,1,0,0,0,0-.14c0-.09,0-0.19,0-0.28V357a1,1,0,0,0-1-1h-6.55a5,5,0,0,0-5,5v4.78a6.24,6.24,0,0,0,1.73,4.31l-0.22,0a9.08,9.08,0,0,0-8.24,9v4.17a1,1,0,0,0,1,1h7.86a1,1,0,0,0,0-2h-6.88v-3.2a7.12,7.12,0,0,1,6.21-7.06l4.14,4.14a1,1,0,0,0,1.38,0l4.14-4.14a7.12,7.12,0,0,1,6.21,7.06v3.2h-7.19a1,1,0,1,0,0,2h8.17a1,1,0,0,0,1-1V379.2A9.08,9.08,0,0,0,677.85,370.17Zm-4.75,4L671,372.09h4.25Zm4.31-8.39a4.31,4.31,0,0,1-8.62,0V364.3h6.55a4,4,0,0,0,2.08-.58v2.1Zm0-5.56a2.08,2.08,0,0,1-2.08,2.08h-6.55V361a3.05,3.05,0,0,1,3-3h5.57v2.27h0Z" transform="translate(-636.1 -356.04)"/><path class="cls-1" d="M673.79,382.68a1,1,0,1,0,.29.69A1,1,0,0,0,673.79,382.68Z" transform="translate(-636.1 -356.04)"/><path class="cls-1" d="M662.21,369.7l-4.08-4.08v-4.7a4.89,4.89,0,0,0-4.88-4.88H641a4.89,4.89,0,0,0-4.88,4.88v8.59A4.89,4.89,0,0,0,641,374.4h12.26a4.86,4.86,0,0,0,4.52-3h3.76A1,1,0,0,0,662.21,369.7Zm-5.16-.29a1,1,0,0,0-1,.76,2.91,2.91,0,0,1-2.85,2.27H641a2.93,2.93,0,0,1-2.93-2.93v-8.59A2.93,2.93,0,0,1,641,358h12.26a2.93,2.93,0,0,1,2.93,2.93V366a1,1,0,0,0,.29.69l2.7,2.7H657Z" transform="translate(-636.1 -356.04)"/><path class="cls-1" d="M681.21,387.68H668.95a4.86,4.86,0,0,0-4.52,3h-3.76a1,1,0,0,0-.69,1.67l4.08,4.08v4.7a4.89,4.89,0,0,0,4.88,4.88h12.26a4.89,4.89,0,0,0,4.88-4.88v-8.59A4.89,4.89,0,0,0,681.21,387.68Zm2.93,13.48a2.93,2.93,0,0,1-2.93,2.93H668.95a2.93,2.93,0,0,1-2.93-2.93v-5.1a1,1,0,0,0-.29-0.69l-2.7-2.7h2.11a1,1,0,0,0,1-.76,2.91,2.91,0,0,1,2.85-2.27h12.26a2.93,2.93,0,0,1,2.93,2.93v8.59Z" transform="translate(-636.1 -356.04)"/><path class="cls-1" d="M679.47,394.26a1,1,0,0,0-1.38,0l-2.6,2.6-1.21-1.21a1,1,0,1,0-1.38,1.38l1.9,1.9a1,1,0,0,0,1.38,0l3.29-3.29A1,1,0,0,0,679.47,394.26Z" transform="translate(-636.1 -356.04)"/><path class="cls-1" d="M651.55,362.51a3.39,3.39,0,0,0-3.14-3.14,3.36,3.36,0,0,0-2.55.9,3.4,3.4,0,0,0-1.08,2.48,1,1,0,0,0,2,0,1.43,1.43,0,1,1,1.75,1.4,1.64,1.64,0,0,0-1.29,1.61v0.52a1,1,0,0,0,2,0V366A3.37,3.37,0,0,0,651.55,362.51Z" transform="translate(-636.1 -356.04)"/><path class="cls-1" d="M648.86,369.32a1,1,0,1,0,.29.69A1,1,0,0,0,648.86,369.32Z" transform="translate(-636.1 -356.04)"/></svg>